<svg width="16" height="16" viewBox="0 0 16 16" fill="none" xmlns="http://www.w3.org/2000/svg">
<path fill-rule="evenodd" clip-rule="evenodd" d="M11.1945 6.76955C11.6068 6.55148 11.9404 6.75185 11.9404 7.21757L11.9414 10.7746C11.9414 11.2403 11.6078 11.7945 11.1955 12.0126L5.74587 14.9435C5.33365 15.1615 5 14.9612 5 14.4954V10.9383C5 10.4726 5.33365 9.91838 5.74587 9.70031L11.1945 6.76955Z" fill="#27E0F6"/>
<path d="M10.7837 3.8917C11.0809 4.04531 11.2885 4.4 11.1848 4.73527C11.1246 4.93058 10.9155 5.09661 10.7347 5.19197L9.13836 6.01449L5.22967 8.07749C5.01014 8.20476 4.64999 8.14608 4.64999 7.81757C4.64999 7.70249 4.72725 7.61293 4.81582 7.54329L6.19604 6.40358C5.87519 6.23124 5.54847 6.00111 5.3971 5.91955C5.00688 5.70863 4.98054 5.37137 4.98054 5.24256C4.98054 5.11376 4.98054 1.73436 4.98054 1.73436C4.98054 1.61194 4.97456 1.51345 5.01151 1.39307C5.0948 1.12322 5.37769 0.977579 5.64162 1.0625C5.68809 1.07744 5.72525 1.10086 5.76952 1.1256L10.7837 3.8917Z" fill="#CD4A86"/>
</svg>
